<mxfile host="app.diagrams.net" modified="2023-04-01T16:39:47.915Z" agent="Mozilla/5.0 (Windows NT 10.0; Win64; x64) AppleWebKit/537.36 (KHTML, like Gecko) Chrome/111.0.0.0 Safari/537.36" etag="1osYOvLeQOjMeD0nDHw9" version="21.1.2" type="device" pages="2">
  <diagram name="Propriedades" id="3DGppvGuMkGfIaw-oFK4">
    <mxGraphModel dx="1842" dy="718" grid="1" gridSize="10" guides="1" tooltips="1" connect="1" arrows="1" fold="1" page="1" pageScale="1" pageWidth="827" pageHeight="1169" math="0" shadow="0">
      <root>
        <mxCell id="0" />
        <mxCell id="gHtM-WSJhrPgvnXhmvUE-1" value="Untitled Layer" parent="0" />
        <mxCell id="gHtM-WSJhrPgvnXhmvUE-2" value="Clube" style="whiteSpace=wrap;html=1;align=center;" vertex="1" parent="gHtM-WSJhrPgvnXhmvUE-1">
          <mxGeometry x="190" y="140" width="100" height="40" as="geometry" />
        </mxCell>
        <mxCell id="gHtM-WSJhrPgvnXhmvUE-3" value="Usuario" style="whiteSpace=wrap;html=1;align=center;" vertex="1" parent="gHtM-WSJhrPgvnXhmvUE-1">
          <mxGeometry x="10" y="300" width="100" height="40" as="geometry" />
        </mxCell>
        <mxCell id="gHtM-WSJhrPgvnXhmvUE-4" value="Leitura" style="whiteSpace=wrap;html=1;align=center;" vertex="1" parent="gHtM-WSJhrPgvnXhmvUE-1">
          <mxGeometry x="560" y="120" width="100" height="40" as="geometry" />
        </mxCell>
        <mxCell id="gHtM-WSJhrPgvnXhmvUE-5" value="Livro" style="whiteSpace=wrap;html=1;align=center;direction=east;flipH=0;flipV=0;" vertex="1" parent="gHtM-WSJhrPgvnXhmvUE-1">
          <mxGeometry x="710" y="325" width="100" height="40" as="geometry" />
        </mxCell>
        <mxCell id="gHtM-WSJhrPgvnXhmvUE-6" value="Postagem" style="whiteSpace=wrap;html=1;align=center;" vertex="1" parent="gHtM-WSJhrPgvnXhmvUE-1">
          <mxGeometry x="390" y="560" width="100" height="40" as="geometry" />
        </mxCell>
        <mxCell id="jojVEQUUqnMYrM5-HtUo-7" value="Entidades-Atributos" parent="0" />
        <mxCell id="jojVEQUUqnMYrM5-HtUo-8" value="Nome" style="ellipse;whiteSpace=wrap;html=1;align=center;" vertex="1" parent="jojVEQUUqnMYrM5-HtUo-7">
          <mxGeometry x="185" y="40" width="100" height="40" as="geometry" />
        </mxCell>
        <mxCell id="jojVEQUUqnMYrM5-HtUo-9" value="Descricao" style="ellipse;whiteSpace=wrap;html=1;align=center;" vertex="1" parent="jojVEQUUqnMYrM5-HtUo-7">
          <mxGeometry x="285" y="60" width="100" height="40" as="geometry" />
        </mxCell>
        <mxCell id="jojVEQUUqnMYrM5-HtUo-10" value="Data Criacao" style="ellipse;whiteSpace=wrap;html=1;align=center;" vertex="1" parent="jojVEQUUqnMYrM5-HtUo-7">
          <mxGeometry x="65" y="110" width="100" height="40" as="geometry" />
        </mxCell>
        <mxCell id="jojVEQUUqnMYrM5-HtUo-11" value="Imagem" style="ellipse;whiteSpace=wrap;html=1;align=center;" vertex="1" parent="jojVEQUUqnMYrM5-HtUo-7">
          <mxGeometry x="295" y="110" width="100" height="40" as="geometry" />
        </mxCell>
        <mxCell id="jojVEQUUqnMYrM5-HtUo-12" value="" style="edgeStyle=none;orthogonalLoop=1;jettySize=auto;html=1;rounded=0;entryX=1;entryY=1;entryDx=0;entryDy=0;" edge="1" parent="jojVEQUUqnMYrM5-HtUo-7" target="jojVEQUUqnMYrM5-HtUo-31">
          <mxGeometry width="80" relative="1" as="geometry">
            <mxPoint x="235" y="140" as="sourcePoint" />
            <mxPoint x="179.4000000000001" y="91.20000000000005" as="targetPoint" />
            <Array as="points" />
          </mxGeometry>
        </mxCell>
        <mxCell id="jojVEQUUqnMYrM5-HtUo-13" value="" style="edgeStyle=none;orthogonalLoop=1;jettySize=auto;html=1;rounded=0;entryX=0.5;entryY=1;entryDx=0;entryDy=0;exitX=0.5;exitY=0;exitDx=0;exitDy=0;" edge="1" parent="jojVEQUUqnMYrM5-HtUo-7" target="jojVEQUUqnMYrM5-HtUo-8">
          <mxGeometry width="80" relative="1" as="geometry">
            <mxPoint x="235" y="140" as="sourcePoint" />
            <mxPoint x="189" y="101" as="targetPoint" />
            <Array as="points" />
          </mxGeometry>
        </mxCell>
        <mxCell id="jojVEQUUqnMYrM5-HtUo-14" value="" style="edgeStyle=none;orthogonalLoop=1;jettySize=auto;html=1;rounded=0;entryX=0.036;entryY=0.78;entryDx=0;entryDy=0;entryPerimeter=0;exitX=0.5;exitY=0;exitDx=0;exitDy=0;" edge="1" parent="jojVEQUUqnMYrM5-HtUo-7" target="jojVEQUUqnMYrM5-HtUo-9">
          <mxGeometry width="80" relative="1" as="geometry">
            <mxPoint x="235" y="140" as="sourcePoint" />
            <mxPoint x="199" y="111" as="targetPoint" />
            <Array as="points" />
          </mxGeometry>
        </mxCell>
        <mxCell id="jojVEQUUqnMYrM5-HtUo-15" value="" style="edgeStyle=none;orthogonalLoop=1;jettySize=auto;html=1;rounded=0;entryX=1;entryY=0.5;entryDx=0;entryDy=0;exitX=0.5;exitY=0;exitDx=0;exitDy=0;" edge="1" parent="jojVEQUUqnMYrM5-HtUo-7" target="jojVEQUUqnMYrM5-HtUo-10">
          <mxGeometry width="80" relative="1" as="geometry">
            <mxPoint x="235" y="140" as="sourcePoint" />
            <mxPoint x="209" y="121" as="targetPoint" />
            <Array as="points" />
          </mxGeometry>
        </mxCell>
        <mxCell id="jojVEQUUqnMYrM5-HtUo-16" value="" style="edgeStyle=none;orthogonalLoop=1;jettySize=auto;html=1;rounded=0;entryX=0;entryY=0.5;entryDx=0;entryDy=0;" edge="1" parent="jojVEQUUqnMYrM5-HtUo-7" target="jojVEQUUqnMYrM5-HtUo-11">
          <mxGeometry width="80" relative="1" as="geometry">
            <mxPoint x="230" y="140" as="sourcePoint" />
            <mxPoint x="219" y="131" as="targetPoint" />
            <Array as="points" />
          </mxGeometry>
        </mxCell>
        <mxCell id="jojVEQUUqnMYrM5-HtUo-17" value="" style="edgeStyle=none;orthogonalLoop=1;jettySize=auto;html=1;rounded=0;entryX=0.056;entryY=0.696;entryDx=0;entryDy=0;entryPerimeter=0;exitX=1;exitY=0;exitDx=0;exitDy=0;" edge="1" parent="jojVEQUUqnMYrM5-HtUo-7" target="jojVEQUUqnMYrM5-HtUo-26">
          <mxGeometry width="80" relative="1" as="geometry">
            <mxPoint x="105" y="300" as="sourcePoint" />
            <mxPoint x="99" y="211" as="targetPoint" />
            <Array as="points" />
          </mxGeometry>
        </mxCell>
        <mxCell id="jojVEQUUqnMYrM5-HtUo-18" value="" style="edgeStyle=none;orthogonalLoop=1;jettySize=auto;html=1;rounded=0;entryX=0;entryY=0.5;entryDx=0;entryDy=0;" edge="1" parent="jojVEQUUqnMYrM5-HtUo-7" target="jojVEQUUqnMYrM5-HtUo-32">
          <mxGeometry width="80" relative="1" as="geometry">
            <mxPoint x="110" y="320" as="sourcePoint" />
            <mxPoint x="215" y="300" as="targetPoint" />
            <Array as="points" />
          </mxGeometry>
        </mxCell>
        <mxCell id="jojVEQUUqnMYrM5-HtUo-19" value="" style="edgeStyle=none;orthogonalLoop=1;jettySize=auto;html=1;rounded=0;entryX=0.047;entryY=0.318;entryDx=0;entryDy=0;entryPerimeter=0;exitX=0.75;exitY=1;exitDx=0;exitDy=0;" edge="1" parent="jojVEQUUqnMYrM5-HtUo-7" target="jojVEQUUqnMYrM5-HtUo-28">
          <mxGeometry width="80" relative="1" as="geometry">
            <mxPoint x="80" y="340" as="sourcePoint" />
            <mxPoint x="209" y="211" as="targetPoint" />
            <Array as="points" />
          </mxGeometry>
        </mxCell>
        <mxCell id="jojVEQUUqnMYrM5-HtUo-20" value="" style="edgeStyle=none;orthogonalLoop=1;jettySize=auto;html=1;rounded=0;entryX=0;entryY=0.5;entryDx=0;entryDy=0;" edge="1" parent="jojVEQUUqnMYrM5-HtUo-7" target="jojVEQUUqnMYrM5-HtUo-25">
          <mxGeometry width="80" relative="1" as="geometry">
            <mxPoint x="105" y="340" as="sourcePoint" />
            <mxPoint x="85" y="250" as="targetPoint" />
            <Array as="points" />
          </mxGeometry>
        </mxCell>
        <mxCell id="jojVEQUUqnMYrM5-HtUo-22" value="Imagem" style="ellipse;whiteSpace=wrap;html=1;align=center;" vertex="1" parent="jojVEQUUqnMYrM5-HtUo-7">
          <mxGeometry x="295" y="110" width="100" height="40" as="geometry" />
        </mxCell>
        <mxCell id="jojVEQUUqnMYrM5-HtUo-23" value="Descricao" style="ellipse;whiteSpace=wrap;html=1;align=center;" vertex="1" parent="jojVEQUUqnMYrM5-HtUo-7">
          <mxGeometry x="285" y="60" width="100" height="40" as="geometry" />
        </mxCell>
        <mxCell id="jojVEQUUqnMYrM5-HtUo-24" value="Nome" style="ellipse;whiteSpace=wrap;html=1;align=center;" vertex="1" parent="jojVEQUUqnMYrM5-HtUo-7">
          <mxGeometry x="185" y="40" width="100" height="40" as="geometry" />
        </mxCell>
        <mxCell id="jojVEQUUqnMYrM5-HtUo-25" value="Nome" style="ellipse;whiteSpace=wrap;html=1;align=center;" vertex="1" parent="jojVEQUUqnMYrM5-HtUo-7">
          <mxGeometry x="195" y="340" width="100" height="40" as="geometry" />
        </mxCell>
        <mxCell id="jojVEQUUqnMYrM5-HtUo-26" value="Imagem/Icone" style="ellipse;whiteSpace=wrap;html=1;align=center;" vertex="1" parent="jojVEQUUqnMYrM5-HtUo-7">
          <mxGeometry x="165" y="230" width="100" height="40" as="geometry" />
        </mxCell>
        <mxCell id="jojVEQUUqnMYrM5-HtUo-28" value="Senha" style="ellipse;whiteSpace=wrap;html=1;align=center;" vertex="1" parent="jojVEQUUqnMYrM5-HtUo-7">
          <mxGeometry x="155" y="390" width="100" height="40" as="geometry" />
        </mxCell>
        <mxCell id="jojVEQUUqnMYrM5-HtUo-29" value="" style="edgeStyle=none;orthogonalLoop=1;jettySize=auto;html=1;rounded=0;entryX=0.5;entryY=1;entryDx=0;entryDy=0;exitX=0.7;exitY=0;exitDx=0;exitDy=0;exitPerimeter=0;" edge="1" parent="jojVEQUUqnMYrM5-HtUo-7" target="jojVEQUUqnMYrM5-HtUo-30">
          <mxGeometry width="80" relative="1" as="geometry">
            <mxPoint x="75" y="300" as="sourcePoint" />
            <mxPoint x="-11" y="181" as="targetPoint" />
            <Array as="points" />
          </mxGeometry>
        </mxCell>
        <mxCell id="jojVEQUUqnMYrM5-HtUo-30" value="Bio" style="ellipse;whiteSpace=wrap;html=1;align=center;" vertex="1" parent="jojVEQUUqnMYrM5-HtUo-7">
          <mxGeometry x="75" y="190" width="100" height="40" as="geometry" />
        </mxCell>
        <mxCell id="jojVEQUUqnMYrM5-HtUo-31" value="Id" style="ellipse;whiteSpace=wrap;html=1;align=center;fontStyle=4;" vertex="1" parent="jojVEQUUqnMYrM5-HtUo-7">
          <mxGeometry x="85" y="50" width="100" height="40" as="geometry" />
        </mxCell>
        <mxCell id="jojVEQUUqnMYrM5-HtUo-32" value="E-mail" style="ellipse;whiteSpace=wrap;html=1;align=center;fontStyle=4;" vertex="1" parent="jojVEQUUqnMYrM5-HtUo-7">
          <mxGeometry x="195" y="280" width="100" height="40" as="geometry" />
        </mxCell>
        <mxCell id="jojVEQUUqnMYrM5-HtUo-33" value="Nome" style="ellipse;whiteSpace=wrap;html=1;align=center;" vertex="1" parent="jojVEQUUqnMYrM5-HtUo-7">
          <mxGeometry x="560" y="20" width="100" height="40" as="geometry" />
        </mxCell>
        <mxCell id="jojVEQUUqnMYrM5-HtUo-34" value="" style="edgeStyle=none;orthogonalLoop=1;jettySize=auto;html=1;rounded=0;entryX=1;entryY=1;entryDx=0;entryDy=0;" edge="1" parent="jojVEQUUqnMYrM5-HtUo-7" target="jojVEQUUqnMYrM5-HtUo-39">
          <mxGeometry width="80" relative="1" as="geometry">
            <mxPoint x="610" y="120" as="sourcePoint" />
            <mxPoint x="554.4000000000001" y="71.20000000000005" as="targetPoint" />
            <Array as="points" />
          </mxGeometry>
        </mxCell>
        <mxCell id="jojVEQUUqnMYrM5-HtUo-35" value="" style="edgeStyle=none;orthogonalLoop=1;jettySize=auto;html=1;rounded=0;entryX=0.5;entryY=1;entryDx=0;entryDy=0;exitX=0.5;exitY=0;exitDx=0;exitDy=0;" edge="1" parent="jojVEQUUqnMYrM5-HtUo-7" target="jojVEQUUqnMYrM5-HtUo-33">
          <mxGeometry width="80" relative="1" as="geometry">
            <mxPoint x="610" y="120" as="sourcePoint" />
            <mxPoint x="564" y="81" as="targetPoint" />
            <Array as="points" />
          </mxGeometry>
        </mxCell>
        <mxCell id="jojVEQUUqnMYrM5-HtUo-36" value="" style="edgeStyle=none;orthogonalLoop=1;jettySize=auto;html=1;rounded=0;entryX=0.11;entryY=0.775;entryDx=0;entryDy=0;entryPerimeter=0;exitX=0.5;exitY=0;exitDx=0;exitDy=0;" edge="1" parent="jojVEQUUqnMYrM5-HtUo-7" target="jojVEQUUqnMYrM5-HtUo-37">
          <mxGeometry width="80" relative="1" as="geometry">
            <mxPoint x="610" y="120" as="sourcePoint" />
            <mxPoint x="663.6000000000001" y="71.19999999999999" as="targetPoint" />
            <Array as="points" />
          </mxGeometry>
        </mxCell>
        <mxCell id="jojVEQUUqnMYrM5-HtUo-37" value="Data Fim" style="ellipse;whiteSpace=wrap;html=1;align=center;" vertex="1" parent="jojVEQUUqnMYrM5-HtUo-7">
          <mxGeometry x="660" y="40" width="100" height="40" as="geometry" />
        </mxCell>
        <mxCell id="jojVEQUUqnMYrM5-HtUo-38" value="Data Inicio" style="ellipse;whiteSpace=wrap;html=1;align=center;" vertex="1" parent="jojVEQUUqnMYrM5-HtUo-7">
          <mxGeometry x="560" y="20" width="100" height="40" as="geometry" />
        </mxCell>
        <mxCell id="jojVEQUUqnMYrM5-HtUo-39" value="Id" style="ellipse;whiteSpace=wrap;html=1;align=center;fontStyle=4;" vertex="1" parent="jojVEQUUqnMYrM5-HtUo-7">
          <mxGeometry x="460" y="30" width="100" height="40" as="geometry" />
        </mxCell>
        <mxCell id="jojVEQUUqnMYrM5-HtUo-40" value="" style="edgeStyle=none;orthogonalLoop=1;jettySize=auto;html=1;rounded=0;entryX=0.5;entryY=1;entryDx=0;entryDy=0;exitX=0.5;exitY=0;exitDx=0;exitDy=0;" edge="1" parent="jojVEQUUqnMYrM5-HtUo-7" source="jojVEQUUqnMYrM5-HtUo-5" target="jojVEQUUqnMYrM5-HtUo-46">
          <mxGeometry width="80" relative="1" as="geometry">
            <mxPoint x="770" y="320" as="sourcePoint" />
            <mxPoint x="910.4000000000005" y="185.3199999999997" as="targetPoint" />
          </mxGeometry>
        </mxCell>
        <mxCell id="jojVEQUUqnMYrM5-HtUo-41" value="" style="edgeStyle=none;orthogonalLoop=1;jettySize=auto;html=1;rounded=0;entryX=1;entryY=1;entryDx=0;entryDy=0;exitX=0;exitY=0.25;exitDx=0;exitDy=0;" edge="1" parent="jojVEQUUqnMYrM5-HtUo-7" source="jojVEQUUqnMYrM5-HtUo-5" target="jojVEQUUqnMYrM5-HtUo-51">
          <mxGeometry width="80" relative="1" as="geometry">
            <mxPoint x="720" y="340" as="sourcePoint" />
            <mxPoint x="760" y="290" as="targetPoint" />
          </mxGeometry>
        </mxCell>
        <mxCell id="jojVEQUUqnMYrM5-HtUo-42" value="" style="edgeStyle=none;orthogonalLoop=1;jettySize=auto;html=1;rounded=0;entryX=1;entryY=0;entryDx=0;entryDy=0;exitX=0.25;exitY=1;exitDx=0;exitDy=0;" edge="1" parent="jojVEQUUqnMYrM5-HtUo-7" source="jojVEQUUqnMYrM5-HtUo-5" target="jojVEQUUqnMYrM5-HtUo-48">
          <mxGeometry width="80" relative="1" as="geometry">
            <mxPoint x="745" y="370" as="sourcePoint" />
            <mxPoint x="1025.800000000001" y="215.55999999999995" as="targetPoint" />
          </mxGeometry>
        </mxCell>
        <mxCell id="jojVEQUUqnMYrM5-HtUo-43" value="" style="edgeStyle=none;orthogonalLoop=1;jettySize=auto;html=1;rounded=0;entryX=1;entryY=0.5;entryDx=0;entryDy=0;" edge="1" parent="jojVEQUUqnMYrM5-HtUo-7" target="jojVEQUUqnMYrM5-HtUo-45">
          <mxGeometry width="80" relative="1" as="geometry">
            <mxPoint x="710" y="360" as="sourcePoint" />
            <mxPoint x="630" y="240" as="targetPoint" />
          </mxGeometry>
        </mxCell>
        <mxCell id="jojVEQUUqnMYrM5-HtUo-44" value="" style="edgeStyle=none;orthogonalLoop=1;jettySize=auto;html=1;rounded=0;entryX=0.5;entryY=0;entryDx=0;entryDy=0;exitX=0.5;exitY=1;exitDx=0;exitDy=0;" edge="1" parent="jojVEQUUqnMYrM5-HtUo-7" source="jojVEQUUqnMYrM5-HtUo-5" target="jojVEQUUqnMYrM5-HtUo-47">
          <mxGeometry width="80" relative="1" as="geometry">
            <mxPoint x="770" y="370" as="sourcePoint" />
            <mxPoint x="880" y="280" as="targetPoint" />
          </mxGeometry>
        </mxCell>
        <mxCell id="jojVEQUUqnMYrM5-HtUo-45" value="Título" style="ellipse;whiteSpace=wrap;html=1;align=center;direction=east;flipH=0;flipV=0;" vertex="1" parent="jojVEQUUqnMYrM5-HtUo-7">
          <mxGeometry x="520" y="340" width="100" height="40" as="geometry" />
        </mxCell>
        <mxCell id="jojVEQUUqnMYrM5-HtUo-46" value="Imagem/Icone" style="ellipse;whiteSpace=wrap;html=1;align=center;direction=east;flipH=0;flipV=0;" vertex="1" parent="jojVEQUUqnMYrM5-HtUo-7">
          <mxGeometry x="670" y="190" width="100" height="40" as="geometry" />
        </mxCell>
        <mxCell id="jojVEQUUqnMYrM5-HtUo-47" value="Sinopse" style="ellipse;whiteSpace=wrap;html=1;align=center;direction=east;flipH=0;flipV=0;" vertex="1" parent="jojVEQUUqnMYrM5-HtUo-7">
          <mxGeometry x="680" y="420" width="100" height="40" as="geometry" />
        </mxCell>
        <mxCell id="jojVEQUUqnMYrM5-HtUo-48" value="Autor" style="ellipse;whiteSpace=wrap;html=1;align=center;direction=east;flipH=0;flipV=0;" vertex="1" parent="jojVEQUUqnMYrM5-HtUo-7">
          <mxGeometry x="580" y="390" width="100" height="40" as="geometry" />
        </mxCell>
        <mxCell id="jojVEQUUqnMYrM5-HtUo-49" value="" style="edgeStyle=none;orthogonalLoop=1;jettySize=auto;html=1;rounded=0;entryX=1;entryY=1;entryDx=0;entryDy=0;exitX=0.25;exitY=0;exitDx=0;exitDy=0;" edge="1" parent="jojVEQUUqnMYrM5-HtUo-7" source="jojVEQUUqnMYrM5-HtUo-5" target="jojVEQUUqnMYrM5-HtUo-50">
          <mxGeometry width="80" relative="1" as="geometry">
            <mxPoint x="745" y="330" as="sourcePoint" />
            <mxPoint x="414" y="211" as="targetPoint" />
          </mxGeometry>
        </mxCell>
        <mxCell id="jojVEQUUqnMYrM5-HtUo-50" value="Data Lançamento" style="ellipse;whiteSpace=wrap;html=1;align=center;direction=east;flipH=0;flipV=0;" vertex="1" parent="jojVEQUUqnMYrM5-HtUo-7">
          <mxGeometry x="550" y="230" width="110" height="40" as="geometry" />
        </mxCell>
        <mxCell id="jojVEQUUqnMYrM5-HtUo-51" value="Id" style="ellipse;whiteSpace=wrap;html=1;align=center;fontStyle=4;direction=east;flipH=0;flipV=0;" vertex="1" parent="jojVEQUUqnMYrM5-HtUo-7">
          <mxGeometry x="540" y="280" width="100" height="40" as="geometry" />
        </mxCell>
        <mxCell id="jojVEQUUqnMYrM5-HtUo-52" value="Nome" style="ellipse;whiteSpace=wrap;html=1;align=center;" vertex="1" parent="jojVEQUUqnMYrM5-HtUo-7">
          <mxGeometry x="388.5" y="460" width="100" height="40" as="geometry" />
        </mxCell>
        <mxCell id="jojVEQUUqnMYrM5-HtUo-53" value="" style="edgeStyle=none;orthogonalLoop=1;jettySize=auto;html=1;rounded=0;entryX=1;entryY=1;entryDx=0;entryDy=0;" edge="1" parent="jojVEQUUqnMYrM5-HtUo-7" target="jojVEQUUqnMYrM5-HtUo-58">
          <mxGeometry width="80" relative="1" as="geometry">
            <mxPoint x="438.5" y="560" as="sourcePoint" />
            <mxPoint x="382.9000000000001" y="511.20000000000005" as="targetPoint" />
            <Array as="points" />
          </mxGeometry>
        </mxCell>
        <mxCell id="jojVEQUUqnMYrM5-HtUo-54" value="" style="edgeStyle=none;orthogonalLoop=1;jettySize=auto;html=1;rounded=0;entryX=0.5;entryY=1;entryDx=0;entryDy=0;exitX=0.5;exitY=0;exitDx=0;exitDy=0;" edge="1" parent="jojVEQUUqnMYrM5-HtUo-7" target="jojVEQUUqnMYrM5-HtUo-52">
          <mxGeometry width="80" relative="1" as="geometry">
            <mxPoint x="438.5" y="560" as="sourcePoint" />
            <mxPoint x="392.5" y="521" as="targetPoint" />
            <Array as="points" />
          </mxGeometry>
        </mxCell>
        <mxCell id="jojVEQUUqnMYrM5-HtUo-55" value="" style="edgeStyle=none;orthogonalLoop=1;jettySize=auto;html=1;rounded=0;exitX=0.5;exitY=0;exitDx=0;exitDy=0;entryX=0;entryY=1;entryDx=0;entryDy=0;" edge="1" parent="jojVEQUUqnMYrM5-HtUo-7" target="jojVEQUUqnMYrM5-HtUo-56">
          <mxGeometry width="80" relative="1" as="geometry">
            <mxPoint x="438.5" y="560" as="sourcePoint" />
            <mxPoint x="500" y="520" as="targetPoint" />
            <Array as="points" />
          </mxGeometry>
        </mxCell>
        <mxCell id="jojVEQUUqnMYrM5-HtUo-56" value="Data Criação" style="ellipse;whiteSpace=wrap;html=1;align=center;" vertex="1" parent="jojVEQUUqnMYrM5-HtUo-7">
          <mxGeometry x="500" y="490" width="100" height="40" as="geometry" />
        </mxCell>
        <mxCell id="jojVEQUUqnMYrM5-HtUo-57" value="Conteúdo" style="ellipse;whiteSpace=wrap;html=1;align=center;" vertex="1" parent="jojVEQUUqnMYrM5-HtUo-7">
          <mxGeometry x="388.5" y="460" width="100" height="40" as="geometry" />
        </mxCell>
        <mxCell id="jojVEQUUqnMYrM5-HtUo-58" value="Id" style="ellipse;whiteSpace=wrap;html=1;align=center;fontStyle=4;" vertex="1" parent="jojVEQUUqnMYrM5-HtUo-7">
          <mxGeometry x="295" y="490" width="100" height="40" as="geometry" />
        </mxCell>
        <mxCell id="jojVEQUUqnMYrM5-HtUo-1" value="Entidades" parent="0" />
        <mxCell id="jojVEQUUqnMYrM5-HtUo-2" value="Clube" style="whiteSpace=wrap;html=1;align=center;" vertex="1" parent="jojVEQUUqnMYrM5-HtUo-1">
          <mxGeometry x="190" y="140" width="100" height="40" as="geometry" />
        </mxCell>
        <mxCell id="jojVEQUUqnMYrM5-HtUo-3" value="Usuario" style="whiteSpace=wrap;html=1;align=center;" vertex="1" parent="jojVEQUUqnMYrM5-HtUo-1">
          <mxGeometry x="10" y="300" width="100" height="40" as="geometry" />
        </mxCell>
        <mxCell id="jojVEQUUqnMYrM5-HtUo-4" value="Leitura" style="whiteSpace=wrap;html=1;align=center;" vertex="1" parent="jojVEQUUqnMYrM5-HtUo-1">
          <mxGeometry x="560" y="120" width="100" height="40" as="geometry" />
        </mxCell>
        <mxCell id="jojVEQUUqnMYrM5-HtUo-5" value="Livro" style="whiteSpace=wrap;html=1;align=center;direction=east;flipH=0;flipV=0;" vertex="1" parent="jojVEQUUqnMYrM5-HtUo-1">
          <mxGeometry x="710" y="325" width="100" height="40" as="geometry" />
        </mxCell>
        <mxCell id="jojVEQUUqnMYrM5-HtUo-6" value="Postagem" style="whiteSpace=wrap;html=1;align=center;" vertex="1" parent="jojVEQUUqnMYrM5-HtUo-1">
          <mxGeometry x="390" y="560" width="100" height="40" as="geometry" />
        </mxCell>
      </root>
    </mxGraphModel>
  </diagram>
  <diagram id="L5UooyY26G6SyMGAtC-l" name="Relacionamentos">
    <mxGraphModel dx="1305" dy="508" grid="1" gridSize="11" guides="1" tooltips="1" connect="1" arrows="1" fold="1" page="1" pageScale="1" pageWidth="1654" pageHeight="1169" math="0" shadow="0">
      <root>
        <mxCell id="0" />
        <mxCell id="FjlLC8PWpLcPWFSmHj3d-1" value="Entidades" parent="0" />
        <mxCell id="yDCpS6pM6w4DCOterPhk-0" value="Leitura" style="swimlane;childLayout=stackLayout;horizontal=1;startSize=50;horizontalStack=0;rounded=1;fontSize=13;fontStyle=0;strokeWidth=2;resizeParent=0;resizeLast=1;shadow=0;dashed=0;align=center;arcSize=4;whiteSpace=wrap;html=1;" vertex="1" parent="FjlLC8PWpLcPWFSmHj3d-1">
          <mxGeometry x="901" y="455" width="160" height="120" as="geometry">
            <mxRectangle x="150" y="100" width="80" height="50" as="alternateBounds" />
          </mxGeometry>
        </mxCell>
        <mxCell id="yDCpS6pM6w4DCOterPhk-1" value="+Id&lt;br style=&quot;font-size: 13px;&quot;&gt;+Data Inicio&lt;br style=&quot;font-size: 13px;&quot;&gt;+Data Fim" style="align=left;strokeColor=none;fillColor=none;spacingLeft=4;fontSize=13;verticalAlign=top;resizable=0;rotatable=0;part=1;html=1;" vertex="1" parent="yDCpS6pM6w4DCOterPhk-0">
          <mxGeometry y="50" width="160" height="70" as="geometry" />
        </mxCell>
        <mxCell id="yDCpS6pM6w4DCOterPhk-2" value="Postagem" style="swimlane;childLayout=stackLayout;horizontal=1;startSize=50;horizontalStack=0;rounded=1;fontSize=13;fontStyle=0;strokeWidth=2;resizeParent=0;resizeLast=1;shadow=0;dashed=0;align=center;arcSize=4;whiteSpace=wrap;html=1;" vertex="1" parent="FjlLC8PWpLcPWFSmHj3d-1">
          <mxGeometry x="1275" y="396" width="160" height="120" as="geometry">
            <mxRectangle x="570" y="100" width="80" height="50" as="alternateBounds" />
          </mxGeometry>
        </mxCell>
        <mxCell id="yDCpS6pM6w4DCOterPhk-3" value="+Id&lt;br style=&quot;font-size: 13px;&quot;&gt;+Conteúdo&lt;br style=&quot;font-size: 13px;&quot;&gt;+Data Criacao" style="align=left;strokeColor=none;fillColor=none;spacingLeft=4;fontSize=13;verticalAlign=top;resizable=0;rotatable=0;part=1;html=1;" vertex="1" parent="yDCpS6pM6w4DCOterPhk-2">
          <mxGeometry y="50" width="160" height="70" as="geometry" />
        </mxCell>
        <mxCell id="7nIbB4xrjv33yoJCX5Wh-0" value="" style="edgeStyle=entityRelationEdgeStyle;fontSize=13;html=1;endArrow=ERoneToMany;rounded=0;entryX=0;entryY=0.25;entryDx=0;entryDy=0;" edge="1" parent="FjlLC8PWpLcPWFSmHj3d-1" target="yDCpS6pM6w4DCOterPhk-3">
          <mxGeometry width="100" height="100" relative="1" as="geometry">
            <mxPoint x="1067" y="485" as="sourcePoint" />
            <mxPoint x="1127" y="475" as="targetPoint" />
          </mxGeometry>
        </mxCell>
        <mxCell id="7nIbB4xrjv33yoJCX5Wh-1" value="1" style="edgeLabel;html=1;align=center;verticalAlign=middle;resizable=0;points=[];fontSize=13;" vertex="1" connectable="0" parent="7nIbB4xrjv33yoJCX5Wh-0">
          <mxGeometry x="-0.9212" relative="1" as="geometry">
            <mxPoint x="4" as="offset" />
          </mxGeometry>
        </mxCell>
        <mxCell id="7nIbB4xrjv33yoJCX5Wh-2" value="N" style="edgeLabel;html=1;align=center;verticalAlign=middle;resizable=0;points=[];fontSize=13;" vertex="1" connectable="0" parent="7nIbB4xrjv33yoJCX5Wh-0">
          <mxGeometry x="0.8725" y="1" relative="1" as="geometry">
            <mxPoint x="-9" as="offset" />
          </mxGeometry>
        </mxCell>
        <mxCell id="4sIS8ltRe1hSAMYsW8S5-0" value="Clube" style="swimlane;childLayout=stackLayout;horizontal=1;startSize=50;horizontalStack=0;rounded=1;fontSize=13;fontStyle=0;strokeWidth=2;resizeParent=0;resizeLast=1;shadow=0;dashed=0;align=center;arcSize=4;whiteSpace=wrap;html=1;" vertex="1" parent="FjlLC8PWpLcPWFSmHj3d-1">
          <mxGeometry x="582" y="443.5" width="160" height="143" as="geometry">
            <mxRectangle x="330" y="270" width="80" height="50" as="alternateBounds" />
          </mxGeometry>
        </mxCell>
        <mxCell id="4sIS8ltRe1hSAMYsW8S5-1" value="+&amp;nbsp;Id&lt;br style=&quot;font-size: 13px;&quot;&gt;+&amp;nbsp;Nome&lt;br style=&quot;font-size: 13px;&quot;&gt;+&amp;nbsp;Descricao&lt;br style=&quot;font-size: 13px;&quot;&gt;+&amp;nbsp;Imagem (capa)&lt;br style=&quot;font-size: 13px;&quot;&gt;+ Data Criacao" style="align=left;strokeColor=none;fillColor=none;spacingLeft=4;fontSize=13;verticalAlign=top;resizable=0;rotatable=0;part=1;html=1;" vertex="1" parent="4sIS8ltRe1hSAMYsW8S5-0">
          <mxGeometry y="50" width="160" height="93" as="geometry" />
        </mxCell>
        <mxCell id="P9vgTmOxW39qDe1SSsuh-0" value="Livro" style="swimlane;childLayout=stackLayout;horizontal=1;startSize=50;horizontalStack=0;rounded=1;fontSize=13;fontStyle=0;strokeWidth=2;resizeParent=0;resizeLast=1;shadow=0;dashed=0;align=center;arcSize=4;whiteSpace=wrap;html=1;" vertex="1" parent="FjlLC8PWpLcPWFSmHj3d-1">
          <mxGeometry x="1247" y="611" width="160" height="161" as="geometry" />
        </mxCell>
        <mxCell id="P9vgTmOxW39qDe1SSsuh-1" value="+ Id&lt;br style=&quot;font-size: 13px;&quot;&gt;+&amp;nbsp;Título&lt;br style=&quot;font-size: 13px;&quot;&gt;+&amp;nbsp;Autor&lt;br style=&quot;font-size: 13px;&quot;&gt;+ Sinopse&lt;br style=&quot;font-size: 13px;&quot;&gt;+ Image/Icone&lt;br style=&quot;font-size: 13px;&quot;&gt;+ Data Lancamento" style="align=left;strokeColor=none;fillColor=none;spacingLeft=4;fontSize=13;verticalAlign=top;resizable=0;rotatable=0;part=1;html=1;" vertex="1" parent="P9vgTmOxW39qDe1SSsuh-0">
          <mxGeometry y="50" width="160" height="111" as="geometry" />
        </mxCell>
        <mxCell id="1uH3PdRmSh5aIo7HPxPP-0" value="Usuario" style="swimlane;childLayout=stackLayout;horizontal=1;startSize=50;horizontalStack=0;rounded=1;fontSize=13;fontStyle=0;strokeWidth=2;resizeParent=0;resizeLast=1;shadow=0;dashed=0;align=center;arcSize=4;whiteSpace=wrap;html=1;" vertex="1" parent="FjlLC8PWpLcPWFSmHj3d-1">
          <mxGeometry x="219" y="455" width="160" height="161" as="geometry" />
        </mxCell>
        <mxCell id="1uH3PdRmSh5aIo7HPxPP-1" value="+ E-mail&lt;br style=&quot;font-size: 13px;&quot;&gt;+ Nome&lt;br style=&quot;font-size: 13px;&quot;&gt;+ Bio&lt;br style=&quot;font-size: 13px;&quot;&gt;+ Imagem/Icone&lt;br style=&quot;font-size: 13px;&quot;&gt;+ Papel (mod ou leitor)&lt;br style=&quot;font-size: 13px;&quot;&gt;+ Senha" style="align=left;strokeColor=none;fillColor=none;spacingLeft=4;fontSize=13;verticalAlign=top;resizable=0;rotatable=0;part=1;html=1;" vertex="1" parent="1uH3PdRmSh5aIo7HPxPP-0">
          <mxGeometry y="50" width="160" height="111" as="geometry" />
        </mxCell>
        <mxCell id="Sr1zihYlqoWuBe43M-rt-7" value="" style="edgeStyle=entityRelationEdgeStyle;fontSize=13;html=1;endArrow=ERmandOne;startArrow=ERmandOne;rounded=0;exitX=1;exitY=0.5;exitDx=0;exitDy=0;entryX=0;entryY=0;entryDx=0;entryDy=0;" edge="1" parent="FjlLC8PWpLcPWFSmHj3d-1" source="yDCpS6pM6w4DCOterPhk-1" target="P9vgTmOxW39qDe1SSsuh-1">
          <mxGeometry width="100" height="100" relative="1" as="geometry">
            <mxPoint x="1204" y="755" as="sourcePoint" />
            <mxPoint x="1304" y="655" as="targetPoint" />
          </mxGeometry>
        </mxCell>
        <mxCell id="Sr1zihYlqoWuBe43M-rt-8" value="1" style="edgeLabel;html=1;align=center;verticalAlign=middle;resizable=0;points=[];fontSize=13;" vertex="1" connectable="0" parent="Sr1zihYlqoWuBe43M-rt-7">
          <mxGeometry x="-0.783" y="-2" relative="1" as="geometry">
            <mxPoint x="-3" as="offset" />
          </mxGeometry>
        </mxCell>
        <mxCell id="Sr1zihYlqoWuBe43M-rt-9" value="1" style="edgeLabel;html=1;align=center;verticalAlign=middle;resizable=0;points=[];fontSize=13;" vertex="1" connectable="0" parent="Sr1zihYlqoWuBe43M-rt-7">
          <mxGeometry x="0.8585" y="3" relative="1" as="geometry">
            <mxPoint x="-2" as="offset" />
          </mxGeometry>
        </mxCell>
        <mxCell id="Sr1zihYlqoWuBe43M-rt-11" value="" style="edgeStyle=entityRelationEdgeStyle;fontSize=13;html=1;endArrow=ERoneToMany;rounded=0;entryX=0;entryY=0.25;entryDx=0;entryDy=0;exitX=1;exitY=0.25;exitDx=0;exitDy=0;" edge="1" parent="FjlLC8PWpLcPWFSmHj3d-1" source="4sIS8ltRe1hSAMYsW8S5-1" target="yDCpS6pM6w4DCOterPhk-1">
          <mxGeometry width="100" height="100" relative="1" as="geometry">
            <mxPoint x="973" y="692" as="sourcePoint" />
            <mxPoint x="1003" y="648" as="targetPoint" />
          </mxGeometry>
        </mxCell>
        <mxCell id="Sr1zihYlqoWuBe43M-rt-12" value="1" style="edgeLabel;html=1;align=center;verticalAlign=middle;resizable=0;points=[];fontSize=13;" vertex="1" connectable="0" parent="Sr1zihYlqoWuBe43M-rt-11">
          <mxGeometry x="-0.9212" relative="1" as="geometry">
            <mxPoint x="4" as="offset" />
          </mxGeometry>
        </mxCell>
        <mxCell id="Sr1zihYlqoWuBe43M-rt-13" value="N" style="edgeLabel;html=1;align=center;verticalAlign=middle;resizable=0;points=[];fontSize=13;" vertex="1" connectable="0" parent="Sr1zihYlqoWuBe43M-rt-11">
          <mxGeometry x="0.8725" y="1" relative="1" as="geometry">
            <mxPoint x="-9" as="offset" />
          </mxGeometry>
        </mxCell>
        <mxCell id="Sr1zihYlqoWuBe43M-rt-15" value="" style="edgeStyle=entityRelationEdgeStyle;fontSize=12;html=1;endArrow=ERmany;startArrow=ERmany;rounded=0;exitX=1.014;exitY=0.33;exitDx=0;exitDy=0;exitPerimeter=0;entryX=0;entryY=0.25;entryDx=0;entryDy=0;" edge="1" parent="FjlLC8PWpLcPWFSmHj3d-1" source="1uH3PdRmSh5aIo7HPxPP-1" target="4sIS8ltRe1hSAMYsW8S5-1">
          <mxGeometry width="100" height="100" relative="1" as="geometry">
            <mxPoint x="440" y="586.5" as="sourcePoint" />
            <mxPoint x="540" y="486.5" as="targetPoint" />
          </mxGeometry>
        </mxCell>
        <mxCell id="Sr1zihYlqoWuBe43M-rt-16" value="N" style="edgeLabel;html=1;align=center;verticalAlign=middle;resizable=0;points=[];" vertex="1" connectable="0" parent="Sr1zihYlqoWuBe43M-rt-15">
          <mxGeometry x="-0.8056" y="2" relative="1" as="geometry">
            <mxPoint as="offset" />
          </mxGeometry>
        </mxCell>
        <mxCell id="Sr1zihYlqoWuBe43M-rt-17" value="M" style="edgeLabel;html=1;align=center;verticalAlign=middle;resizable=0;points=[];" vertex="1" connectable="0" parent="Sr1zihYlqoWuBe43M-rt-15">
          <mxGeometry x="0.7927" y="-3" relative="1" as="geometry">
            <mxPoint as="offset" />
          </mxGeometry>
        </mxCell>
      </root>
    </mxGraphModel>
  </diagram>
</mxfile>
